<?xml version="1.0" standalone="no"?><!DOCTYPE svg PUBLIC "-//W3C//DTD SVG 1.1//EN" "http://www.w3.org/Graphics/SVG/1.1/DTD/svg11.dtd"><svg t="1544514935636" class="icon" style="" viewBox="0 0 1024 1024" version="1.1" xmlns="http://www.w3.org/2000/svg" p-id="4316" xmlns:xlink="http://www.w3.org/1999/xlink" width="200" height="200"><defs><style type="text/css"></style></defs><path d="M334.08 951.04c-40.96 0-83.2-16.64-115.2-48.64l-98.56-98.56c-29.44-29.44-47.36-69.12-48.64-111.36 0-39.68 15.36-79.36 43.52-107.52 26.88-26.88 61.44-42.24 97.28-43.52 37.12-1.28 71.68-16.64 97.28-42.24 10.24-10.24 17.92-21.76 25.6-34.56 0-1.28 1.28-2.56 1.28-3.84 3.84-7.68 8.96-19.2 19.2-30.72 37.12-37.12 97.28-35.84 135.68 2.56l48.64 49.92 49.92 48.64c38.4 38.4 39.68 98.56 2.56 135.68-10.24 10.24-23.04 16.64-30.72 19.2-1.28 0-2.56 1.28-3.84 1.28-12.8 6.4-24.32 15.36-34.56 25.6-25.6 25.6-40.96 60.16-42.24 97.28-2.56 37.12-17.92 71.68-43.52 97.28-26.88 29.44-65.28 43.52-103.68 43.52zM422.4 430.08c-16.64 0-34.56 6.4-47.36 19.2-7.68 7.68-11.52 16.64-14.08 23.04-1.28 2.56-1.28 3.84-2.56 5.12-7.68 15.36-17.92 29.44-29.44 40.96-30.72 30.72-70.4 47.36-113.92 49.92-30.72 1.28-58.88 14.08-80.64 35.84-24.32 24.32-37.12 56.32-35.84 90.88 1.28 34.56 15.36 67.84 40.96 93.44l98.56 98.56c52.48 52.48 134.4 53.76 184.32 5.12 21.76-21.76 34.56-49.92 35.84-80.64 1.28-43.52 19.2-84.48 49.92-113.92 11.52-11.52 25.6-21.76 40.96-29.44 1.28 0 2.56-1.28 5.12-2.56 6.4-2.56 15.36-6.4 23.04-14.08 26.88-26.88 25.6-70.4-2.56-98.56L524.8 504.32l-51.2-52.48c-14.08-15.36-33.28-21.76-51.2-21.76z" fill="#ff6600" p-id="4317"></path><path d="M238.592 680.5248l18.0992-18.0992 114.0352 114.048-18.0992 18.0992zM187.392 731.0592l18.112-18.0992 114.048 114.048-18.112 18.0992zM433.92 670.72c-19.2 0-39.68-7.68-55.04-23.04-14.08-14.08-21.76-33.28-23.04-52.48 0-20.48 6.4-38.4 20.48-52.48s32-21.76 52.48-20.48c19.2 0 38.4 8.96 52.48 23.04 29.44 29.44 30.72 76.8 2.56 104.96-14.08 14.08-32 20.48-49.92 20.48z m-6.4-122.88c-12.8 0-24.32 5.12-32 12.8-8.96 8.96-14.08 20.48-12.8 33.28 0 12.8 6.4 25.6 15.36 35.84 19.2 19.2 51.2 20.48 69.12 2.56s17.92-49.92-2.56-69.12c-10.24-10.24-23.04-15.36-37.12-15.36 1.28 0 0 0 0 0zM899.8912 233.7792l18.0992-18.112 32.5888 32.576-18.0992 18.112zM847.1936 262.656l18.0992-18.112 32.5888 32.5888-18.112 18.0992zM800.2048 299.0848l18.0992-18.0992 28.0576 28.0576-18.0992 18.0992zM757.632 89.8816l18.0992-18.0992 32.5888 32.576-18.0992 18.0992zM727.168 144.1408l18.0992-18.0992 32.5888 32.5888-18.0992 18.0992zM698.2656 196.9024l18.0992-18.0992 35.3024 35.2896-18.0992 18.0992z" fill="#ff6600" p-id="4318"></path><path d="M785.92 313.6c-7.68 0-14.08-2.56-20.48-8.96l-47.36-47.36c-10.24-10.24-11.52-24.32-3.84-35.84l85.76-121.6c5.12-5.12 12.8-10.24 20.48-10.24 8.96-1.28 16.64 2.56 23.04 8.96l83.2 83.2c6.4 6.4 8.96 14.08 7.68 23.04-1.28 7.68-5.12 15.36-11.52 19.2l-121.6 85.76c-5.12 2.56-10.24 3.84-15.36 3.84zM823.04 115.2l-87.04 122.88c0 1.28 0 2.56 1.28 2.56l47.36 47.36c1.28 1.28 2.56 1.28 2.56 1.28l121.6-85.76v-3.84L823.04 115.2z" fill="#ff6600" p-id="4319"></path><path d="M554.24 531.2l-61.44-61.44L729.6 232.96l61.44 61.44-236.8 236.8z m-25.6-61.44l25.6 25.6L753.92 294.4l-25.6-25.6-199.68 200.96z" fill="#ff6600" p-id="4320"></path></svg>