<?xml version="1.0" standalone="no"?><!DOCTYPE svg PUBLIC "-//W3C//DTD SVG 1.1//EN" "http://www.w3.org/Graphics/SVG/1.1/DTD/svg11.dtd"><svg t="1544515432603" class="icon" style="" viewBox="0 0 1024 1024" version="1.1" xmlns="http://www.w3.org/2000/svg" p-id="13926" xmlns:xlink="http://www.w3.org/1999/xlink" width="200" height="200"><defs><style type="text/css"></style></defs><path d="M-387.117056 144.707584A0.284 0 0 1 1-387.117056 146.755584Z" p-id="13927" fill="#ff6600"></path><path d="M807.235584 33.007616 241.94048 33.007616c-11.311104 0-20.48 9.168896-20.48 20.48l0 896.93184c0 11.309056 9.168896 20.48 20.48 20.48l565.295104 0c11.309056 0 20.48-9.170944 20.48-20.48L827.715584 53.487616C827.715584 42.176512 818.546688 33.007616 807.235584 33.007616zM566.663168 64.423936c4.073472 0 7.378944 3.303424 7.378944 7.378944 0 4.07552-3.303424 7.378944-7.378944 7.378944-4.07552 0-7.380992-3.303424-7.380992-7.378944C559.284224 67.72736 562.587648 64.423936 566.663168 64.423936zM436.733952 64.423936l89.6 0c3.856384 0 6.981632 3.125248 6.981632 6.981632 0 3.854336-3.125248 6.981632-6.981632 6.981632l-89.6 0c-3.856384 0-6.981632-3.125248-6.981632-6.981632C429.75232 67.549184 432.877568 64.423936 436.733952 64.423936zM524.587008 934.4512c-27.312128 0-49.453056-22.142976-49.453056-49.453056s22.140928-49.453056 49.453056-49.453056c27.312128 0 49.453056 22.142976 49.453056 49.453056S551.899136 934.4512 524.587008 934.4512zM780.005376 780.804096c0 8.310784-7.725056 15.048704-17.256448 15.048704L286.427136 795.8528c-9.531392 0-17.256448-6.73792-17.256448-15.048704L269.170688 121.860096c0-8.310784 7.725056-15.044608 17.256448-15.044608l476.321792 0c9.529344 0 17.256448 6.735872 17.256448 15.044608L780.005376 780.804096z" p-id="13928" fill="#ff6600"></path></svg>