<?xml version="1.0" standalone="no"?><!DOCTYPE svg PUBLIC "-//W3C//DTD SVG 1.1//EN" "http://www.w3.org/Graphics/SVG/1.1/DTD/svg11.dtd"><svg t="1544534032934" class="icon" style="" viewBox="0 0 1024 1024" version="1.1" xmlns="http://www.w3.org/2000/svg" p-id="5581" xmlns:xlink="http://www.w3.org/1999/xlink" width="200" height="200"><defs><style type="text/css"></style></defs><path d="M458.752 230.912c-6.656 176.64-295.936 460.288 0 572.928-99.84-106.496 115.2-154.112 64.512-346.112 80.384 23.552 133.632 283.648 43.008 334.336 267.264-70.656 77.312-494.592-107.52-561.152z" fill="#ff6600" p-id="5582"></path><path d="M512 930.816c-227.84 0-413.696-185.344-413.696-413.696 0-227.84 185.344-413.696 413.696-413.696 227.84 0 413.696 185.344 413.696 413.696 0 227.84-185.856 413.696-413.696 413.696z m0-785.92c-205.312 0-372.736 166.912-372.736 372.736s166.912 372.736 372.736 372.736 372.736-166.912 372.736-372.736-167.424-372.736-372.736-372.736z" fill="#ff6600" p-id="5583"></path></svg>