<?xml version="1.0" standalone="no"?><!DOCTYPE svg PUBLIC "-//W3C//DTD SVG 1.1//EN" "http://www.w3.org/Graphics/SVG/1.1/DTD/svg11.dtd"><svg t="1544515477304" class="icon" style="" viewBox="0 0 1024 1024" version="1.1" xmlns="http://www.w3.org/2000/svg" p-id="15874" xmlns:xlink="http://www.w3.org/1999/xlink" width="200" height="200"><defs><style type="text/css"></style></defs><path d="M928 832l-832 0C43.072 832 0 788.992 0 736l0-576C0 107.072 43.072 64 96 64l832 0C980.864 64 1024 107.072 1024 160l0 576C1024 788.992 980.864 832 928 832zM96 128C78.4 128 64 142.336 64 160l0 576C64 753.6 78.4 768 96 768l832 0c17.6 0 32-14.4 32-32l0-576C960 142.336 945.6 128 928 128L96 128z" p-id="15875" fill="#8a8a8a"></path><path d="M192 896l640 0 0 64-640 0 0-64Z" p-id="15876" fill="#8a8a8a"></path><path d="M444.672 325.312C410.304 307.008 384 320.832 384 356.032l0 185.344C384 576.64 410.24 590.4 444.48 571.904l167.04-90.304c34.112-18.432 34.624-48.512 0.256-66.816L444.672 325.312z" p-id="15877" fill="#8a8a8a"></path></svg>