<?xml version="1.0" standalone="no"?><!DOCTYPE svg PUBLIC "-//W3C//DTD SVG 1.1//EN" "http://www.w3.org/Graphics/SVG/1.1/DTD/svg11.dtd"><svg t="1544515189832" class="icon" style="" viewBox="0 0 1024 1024" version="1.1" xmlns="http://www.w3.org/2000/svg" p-id="8919" xmlns:xlink="http://www.w3.org/1999/xlink" width="200" height="200"><defs><style type="text/css"></style></defs><path d="M810 546V426c0-79.599-30.997-154.433-87.282-210.718S591.599 128 512 128s-154.433 30.998-210.718 87.282S214 346.401 214 426v120c-82.843 0-150 67.157-150 150v50c0 82.843 67.157 150 150 150h15c19.33 0 35-15.67 35-35V426c0-66.243 25.796-128.521 72.638-175.362C383.479 203.796 445.757 178 512 178s128.521 25.796 175.362 72.638C734.203 297.479 760 359.757 760 426v435c0 19.33 15.67 35 35 35h15c82.843 0 150-67.157 150-150v-50c0-82.843-67.157-150-150-150zM214 846c-55.14 0-100-44.86-100-100v-50c0-55.14 44.86-100 100-100v250z m696-100c0 55.14-44.86 100-100 100V596c55.14 0 100 44.86 100 100v50z" p-id="8920" fill="#ff6600"></path><path d="M339 621c-13.807 0-25 11.193-25 25v150c0 13.807 11.193 25 25 25s25-11.193 25-25V646c0-13.807-11.193-25-25-25zM685 623c-13.807 0-25 11.193-25 25v150c0 13.807 11.193 25 25 25s25-11.193 25-25V648c0-13.807-11.193-25-25-25z" p-id="8921" fill="#ff6600"></path></svg>