<?xml version="1.0" standalone="no"?><!DOCTYPE svg PUBLIC "-//W3C//DTD SVG 1.1//EN" "http://www.w3.org/Graphics/SVG/1.1/DTD/svg11.dtd"><svg t="1544515552431" class="icon" style="" viewBox="0 0 1024 1024" version="1.1" xmlns="http://www.w3.org/2000/svg" p-id="17289" xmlns:xlink="http://www.w3.org/1999/xlink" width="200" height="200"><defs><style type="text/css"></style></defs><path d="M128 0m62.72 0l2.56 0q62.72 0 62.72 62.72l0 2.56q0 62.72-62.72 62.72l-2.56 0q-62.72 0-62.72-62.72l0-2.56q0-62.72 62.72-62.72Z" fill="#ff6600" p-id="17290"></path><path d="M192 192a128 128 0 0 0-128 128 128 128 0 0 0 64 110.08V960a64 64 0 0 0 64 64 64 64 0 0 0 64-64V430.08A128 128 0 0 0 320 320a128 128 0 0 0-128-128z" fill="#ff6600" p-id="17291"></path><path d="M768 0m62.72 0l2.56 0q62.72 0 62.72 62.72l0 2.56q0 62.72-62.72 62.72l-2.56 0q-62.72 0-62.72-62.72l0-2.56q0-62.72 62.72-62.72Z" fill="#ff6600" p-id="17292"></path><path d="M832 192a128 128 0 0 0-128 128 128 128 0 0 0 64 110.08V960a64 64 0 0 0 64 64 64 64 0 0 0 64-64V430.08A128 128 0 0 0 960 320a128 128 0 0 0-128-128z" fill="#ff6600" p-id="17293"></path><path d="M448 896m62.72 0l2.56 0q62.72 0 62.72 62.72l0 2.56q0 62.72-62.72 62.72l-2.56 0q-62.72 0-62.72-62.72l0-2.56q0-62.72 62.72-62.72Z" fill="#ff6600" p-id="17294"></path><path d="M576 593.92V64a64 64 0 0 0-64-64 64 64 0 0 0-64 64v531.2A128 128 0 0 0 384 704a128 128 0 0 0 256 0 128 128 0 0 0-64-110.08z" fill="#ff6600" p-id="17295"></path></svg>