<?xml version="1.0" standalone="no"?><!DOCTYPE svg PUBLIC "-//W3C//DTD SVG 1.1//EN" "http://www.w3.org/Graphics/SVG/1.1/DTD/svg11.dtd"><svg t="1544515294686" class="icon" style="" viewBox="0 0 1024 1024" version="1.1" xmlns="http://www.w3.org/2000/svg" p-id="11369" xmlns:xlink="http://www.w3.org/1999/xlink" width="200" height="200"><defs><style type="text/css"></style></defs><path d="M722.2 54H301.8c-56.7 0-102.9 46.2-102.9 102.9v710.2c0 56.7 46.2 102.9 102.9 102.9h420.5c56.7 0 102.9-46.2 102.9-102.9V156.9C825.1 100.2 779 54 722.2 54z m82.9 813.1c0 45.7-37.2 82.9-82.9 82.9H301.8c-45.7 0-82.9-37.2-82.9-82.9V156.9c0-45.7 37.2-82.9 82.9-82.9h420.5c45.7 0 82.9 37.2 82.9 82.9v710.2z" fill="#ff6600" p-id="11370"></path><path d="M512 128c-60.9 0-118.1 23.7-161.2 66.8C307.7 237.9 284 295.1 284 356s23.7 118.1 66.8 161.2C393.9 560.3 451.1 584 512 584c60.9 0 118.1-23.7 161.2-66.8 43-43 66.8-100.3 66.8-161.2s-23.7-118.1-66.8-161.2C630.1 151.7 572.9 128 512 128z m0 435.8c-114.7 0-207.9-93.3-207.9-207.9C304.1 241.3 397.3 148 512 148s207.9 93.3 207.9 207.9c0 114.7-93.2 207.9-207.9 207.9z" fill="#ff6600" p-id="11371"></path><path d="M512 237.9c-65.1 0-118 52.9-118 118s52.9 118 118 118 118-52.9 118-118-52.9-118-118-118z m0 216c-54 0-98-44-98-98s44-98 98-98 98 44 98 98-44 98-98 98zM512 640.8c-65.1 0-118 52.9-118 118s52.9 118 118 118 118-52.9 118-118-52.9-118-118-118z m0 215.9c-54 0-98-44-98-98s44-98 98-98 98 44 98 98c0 54.1-44 98-98 98z" fill="#ff6600" p-id="11372"></path><path d="M512 695.2c-35 0-63.5 28.5-63.5 63.5s28.5 63.5 63.5 63.5 63.5-28.5 63.5-63.5-28.5-63.5-63.5-63.5z m0 107c-24 0-43.5-19.5-43.5-43.5s19.5-43.5 43.5-43.5 43.5 19.5 43.5 43.5-19.5 43.5-43.5 43.5z" fill="#ff6600" p-id="11373"></path></svg>